<svg aria-labelledby="svgTitle" viewBox="0 0 512 512" xmlns="http://www.w3.org/2000/svg">
  <title id="svgTitle">Android Robot in Folder</title>
  <defs>
    <style>
      .stroke-base {
      fill: none;
      stroke: #b8d0fe;
      stroke-linecap: round;
      stroke-miterlimit: 10;
      stroke-width: 2px;
      }

      .stroke-dash-short { stroke-dasharray: 7.41 7.41; }
      .stroke-dash-medium { stroke-dasharray: 7.63 7.63; }
      .stroke-dash-long { stroke-dasharray: 12 12; }
      .stroke-dash-extra-long { stroke-dasharray: 12.22 12.22; }

      .fill-blue-light { fill: #7496dd; }
      .fill-blue-medium { fill: #6283c6; }
      .fill-blue-dark { fill: #4b6fad; }

      .fill-android-green { fill: #34a853; }
      .fill-android-green-dark { fill: #3a9550; }

      .fill-eye-black { fill: #202124; }
    </style>
  </defs>

  <g id="folder-background">
    <path class="fill-blue-light"
      d="M117.26,208.87c41.81-68.57,240.96-63.21,278.43.43,59.36,6.32,43.91,56.81,33.57,64.98,40.4,38.36-5.55,71.49-88.67,111.23-20.48,15.03-30.55,24.11-48.18,28.94-39.32,10.79-64.5-4.21-79.91-19.09-25.09-.19-65.87-14.36-84.26-38.87-79.28,1.53-76.74-122.08-10.98-147.62Z" />
  </g>

  <g id="shadow-layer">
    <path class="fill-blue-medium"
      d="M340.59,385.5c-20.48,15.03-30.56,24.11-48.19,28.95-39.31,10.78-64.49-4.21-79.91-19.09-25.09-.19-65.87-14.36-84.26-38.87-43.98.85-62.78-36.82-59.57-74.89,2.45,20.92,15.58,52.21,46.3,48.61-2.75-15.64,6.85-44.19,12.78-49.04-13.27,48,15.05,86.81,69.69,87.79-.77-18.32,5.06-38.09,15.29-48.77-16.59,39.07,14.83,95.79,67.68,74.6.71-14.17-2.59-50.72-14.04-57-9.76-5.36-3.32-8.49,4.73-5.88,4.91,1.61,6.74-.68,8.48-1.4,2.85-1.17,8.47.78,11.3.7,14.01-.38,47.81-24.7,52.41-29.81,3.51,4.54,2.42,18.77,2.42,18.77,0,0,6-23.94,1.6-37.6,6.44,2.88,9.64,9.26,11.49,14.37,13.27-4.03,36.21-21.35,39.23-24.47,1.23-7.32-1.79-16.59-1.95-17.07.3.25,6.43,5.64,8.4,9.49,4.59-.83,9.02-3.57,11.13-5.49,5.38-4.88,15.1-18.08,20.84-26.11,6.83,16.54-1.07,36.16-7.18,40.99,40.4,38.36-5.56,71.49-88.67,111.22Z" />
  </g>

  <g id="folder-flap-right">
    <path class="fill-blue-dark"
      d="M437.26,283.31c-10.31,4.94-30.82,15.2-36.94,21.41,4.46.93,7.01,4.33,7.01,4.33,0,0-5.6-1.87-9.79-.41-4.18,1.46-60.87,43.21-90.22,50.39.33,11.82-16.18,27.48-16.69,27.96.22-.51,8-17.93,6.83-25.76-1.48-9.96-11.01-15.7-11.01-15.7,0,0,8.2-1.73,15.08,5.91,26.04-2.74,82.21-40.53,90.99-55.21,1.37-2.29,6-13.39,6-13.39,0,0,.65,2.31-1.84,13.93,11.38-3.65,26.33-16.84,32.82-22.26,3.1,2.96,5.68,5.9,7.76,8.8Z" />
  </g>

  <g id="folder-flap-stroke">
    <path class="stroke-base"
      d="M442.31,296.81c-1.63,4.82-4.2,10.38-11.65,11.17-21.03,2.22-43.15,38.04-119.36,73.53-6.95,3.23-13.57,8.08-17.75,14.87-4.59,7.47-14.04,10.47-12.25-3.83.9-7.19,1.15-21.76-1.02-29.93-5.75-21.63-3.53-23.33,10.59-29.11,100.31-41.06,133.54-76.7,145.02-98.62" />
  </g>

  <g id="crease-lines">
    <g>
      <path class="stroke-base" d="M118.23,209.55s2.38-.03,5.98.39" />
      <path class="stroke-base stroke-dash-short" d="M131.51,211.23c3.34.8,6.97,1.99,10.43,3.75" />
      <path class="stroke-base" d="M145.16,216.83c1.66,1.07,3.25,2.3,4.71,3.71" />
    </g>
    <g>
      <path class="stroke-base" d="M169.85,228.32s-2.11.71-5.44,2.51" />
      <path class="stroke-base stroke-dash-long" d="M154.46,237.5c-16.29,13.14-38.45,42.93-29.09,104.88" />
      <path class="stroke-base" d="M126.35,348.3c.34,1.94.72,3.9,1.12,5.9" />
    </g>
    <g>
      <path class="stroke-base" d="M252.32,262.09s-1.8,1.25-4.68,3.75" />
      <path class="stroke-base stroke-dash-extra-long" d="M238.9,274.37c-16.02,17.43-39.41,53.43-29.08,107.99" />
      <path class="stroke-base" d="M211.08,388.35c.44,1.92.92,3.86,1.45,5.82" />
    </g>
    <g>
      <path class="stroke-base" d="M394.02,209.62c-.33-.08-2.63-.19-5.99.09" />
      <path class="stroke-base stroke-dash-medium" d="M380.49,210.84c-3.44.76-7.19,1.93-10.78,3.73" />
      <path class="stroke-base" d="M366.39,216.46c-1.66,1.06-3.25,2.28-4.73,3.69" />
    </g>
  </g>

  <g id="android-robot">
    <path class="fill-android-green"
      d="M361,221.2h-210c.22-1.97.49-3.95.81-5.9.11-.67.23-1.33.35-2,1.89-10.26,5.32-20.18,10.14-29.43,2.26-4.34,4.82-8.53,7.66-12.51,3.47-4.87,7.35-9.43,11.57-13.65,5.69-5.66,12.01-10.65,18.82-14.89-.02-.04-.04-.06-.05-.09-2.12-3.67-4.25-7.33-6.36-10.99l-6.21-10.73-4.46-7.71c-1.29-2.22-1.64-4.85-.98-7.33.65-2.44,2.23-4.53,4.39-5.82,1.25-.75,2.66-1.2,4.11-1.32,3.72-.32,7.3,1.54,9.18,4.78,1.49,2.57,2.97,5.14,4.46,7.71l6.22,10.73c2.12,3.66,4.24,7.32,6.35,10.99.22.37.43.74.65,1.12,1.2-.47,2.41-.92,3.63-1.34,10.82-3.77,22.19-5.74,33.65-5.85.37,0,.73,0,1.09,0,13.25,0,25.92,2.44,37.6,6.89.32.13.64.25.96.38.23-.4.47-.8.69-1.2,2.12-3.66,4.25-7.32,6.36-10.99l6.22-10.73c1.49-2.57,2.97-5.13,4.46-7.7,1.28-2.22,3.39-3.83,5.87-4.49,1.08-.29,2.2-.39,3.31-.29,1.45.13,2.85.58,4.1,1.32,1.38.82,2.53,1.96,3.35,3.33,1.42,2.4,1.76,5.28.9,7.93-.21.65-.49,1.28-.84,1.88-1.49,2.57-2.97,5.14-4.46,7.71l-6.22,10.73c-2.12,3.66-4.24,7.33-6.35,10.99-.05.06-.08.14-.12.21,6.74,4.21,13,9.17,18.63,14.77,4.24,4.22,8.11,8.78,11.57,13.65,2.84,3.98,5.4,8.17,7.67,12.51,4.82,9.26,8.24,19.18,10.14,29.44.13.66.24,1.32.35,1.98.07.42.14.86.21,1.28l-.02.02c.23,1.53.43,3.07.6,4.62Z" />
    <path class="fill-eye-black"
      d="M311.56,191.33c4.2-2.8,4.81-9.27,1.36-14.46-3.45-5.19-9.65-7.12-13.85-4.33-4.2,2.8-4.81,9.27-1.36,14.46,3.45,5.19,9.65,7.12,13.85,4.33M216.35,187.02c3.45-5.19,2.84-11.66-1.36-14.46-4.2-2.8-10.4-.86-13.85,4.33s-2.84,11.66,1.36,14.46,10.4.86,13.85-4.33" />
  </g>

  <g id="pocket-opening">
    <path class="fill-android-green"
      d="M384.67,224.02c-44.08-4.14-90.66,15.31-128.67,35.59-38.01-20.29-84.59-39.73-128.67-35.59,27.71-26.39,88.78-35.16,128.67-20.71,39.9-14.45,100.95-5.68,128.67,20.71Z" />
    <path class="fill-android-green-dark"
      d="M384.67,224.02c-44.08-4.14-90.66,15.31-128.67,35.59-38.01-20.28-84.59-39.73-128.67-35.59,3.53-3.36,7.6-6.43,12.1-9.21,40.4-.03,82.02,17.71,116.57,36.15,34.55-18.44,76.17-36.18,116.57-36.15,4.5,2.78,8.57,5.85,12.1,9.21Z" />
  </g>

  <g id="pocket-details">
    <path class="fill-blue-dark"
      d="M153.36,207.69c-.45,1.85-.85,3.72-1.2,5.6-.12.67-.24,1.34-.35,2-.31,1.87-.57,6.5-.78,8.63-7.94-.63-15.86-.64-23.7.1,6.89-6.56,15.85-12.03,26.03-16.33Z" />
    <path class="fill-blue-dark"
      d="M384.67,224.02c-7.84-.74-15.76-.73-23.7-.1-.16-1.76-.35-5.89-.57-7.35h0c-.07-.44-.13-.87-.2-1.29-.11-.66-.23-1.33-.35-1.99-.35-1.88-.75-3.74-1.2-5.59,10.17,4.29,19.12,9.76,26.01,16.32Z" />
  </g>
</svg>
